<svg width="428" height="926" viewBox="0 0 428 926" fill="none" xmlns="http://www.w3.org/2000/svg">
<g opacity="0.8" clip-path="url(#clip0_1_2)">
<rect width="428" height="926" fill="#434755"/>
<path d="M303.088 689.19L302.962 689.957L303.674 690.268L326.633 700.311L300.276 709.497L299.715 709.692L299.618 710.279L294.554 741.057L283.745 716.237L283.374 715.387L282.499 715.692L256.935 724.601L276.1 699.991L276.465 699.522L276.228 698.977L265.083 673.387L288.042 683.43L288.754 683.741L289.231 683.128L308.065 658.943L303.088 689.19Z" stroke="#595757" stroke-opacity="0.8" stroke-width="2"/>
<path d="M43.0549 691.713L42.9302 692.479L43.6411 692.79L57.7009 698.94L41.5029 704.521L40.9377 704.716L40.8417 705.306L37.8034 723.967L31.236 709.03L30.8654 708.187L29.9948 708.487L14.5679 713.803L26.2094 698.905L26.5774 698.434L26.3368 697.887L19.4411 682.203L33.5009 688.354L34.2118 688.665L34.6896 688.053L46.0092 673.568L43.0549 691.713Z" stroke="#595757" stroke-opacity="0.89" stroke-width="2"/>
<path fill-rule="evenodd" clip-rule="evenodd" d="M209.31 406.246C208.34 420.911 217.075 442.288 237.703 462.644C257.702 453.2 267.273 438.124 267.331 423.924C267.389 409.662 257.853 396.109 239.274 389.852C229.982 386.723 222.74 387.231 217.722 390.26C212.711 393.285 209.796 398.897 209.31 406.246ZM208.312 406.18C207.315 421.256 216.273 442.922 237.05 463.404L227.354 505.007L226.544 505.682L227.259 506.38L227.648 506.056L228.111 506.164L228.254 505.552L253.871 484.212C270.506 485.067 283.85 479.073 291.061 470.334C298.313 461.546 299.339 449.997 291.27 439.991C287.235 434.988 282.496 432.765 277.696 432.965C272.924 433.164 268.232 435.753 264.244 440.097C266.956 434.829 268.309 429.332 268.331 423.928C268.392 409.16 258.504 395.273 239.593 388.905C230.139 385.721 222.564 386.169 217.205 389.404C211.837 392.644 208.813 398.606 208.312 406.18ZM258.47 448.598C253.539 454.326 246.741 459.497 238.032 463.594L228.628 503.945L253.127 483.537C251.535 469.699 253.953 457.53 258.47 448.598ZM265.045 440.715C257.339 449.114 252.045 464.591 254.151 483.277C270.368 484.05 283.27 478.183 290.217 469.764C297.221 461.277 298.197 450.184 290.423 440.545C286.536 435.725 282.107 433.73 277.753 433.911C273.374 434.094 268.926 436.484 265.045 440.715Z" fill="#776C6C"/>
<path fill-rule="evenodd" clip-rule="evenodd" d="M379.562 278.675C378.592 293.34 387.327 314.717 407.955 335.072C427.955 325.629 437.526 310.552 437.584 296.353C437.642 282.091 428.105 268.538 409.526 262.281C400.234 259.152 392.992 259.659 387.974 262.689C382.963 265.714 380.049 271.325 379.562 278.675ZM378.564 278.609C377.567 293.685 386.525 315.35 407.302 335.833L397.606 377.436L396.796 378.11L397.511 378.809L397.9 378.485L398.363 378.593L398.506 377.981L424.123 356.64C440.758 357.496 454.102 351.501 461.313 342.762C468.565 333.975 469.592 322.426 461.522 312.42C457.487 307.416 452.749 305.193 447.948 305.394C443.176 305.593 438.485 308.182 434.496 312.526C437.208 307.258 438.561 301.76 438.584 296.357C438.644 281.589 428.756 267.702 409.845 261.333C400.392 258.15 392.816 258.598 387.457 261.833C382.089 265.073 379.066 271.035 378.564 278.609ZM428.722 321.026C423.791 326.755 416.993 331.925 408.284 336.023L398.88 376.374L423.379 355.966C421.787 342.128 424.205 329.959 428.722 321.026ZM435.297 313.144C427.592 321.543 422.297 337.02 424.404 355.706C440.62 356.479 453.522 350.611 460.47 342.192C467.473 333.706 468.449 322.613 460.675 312.973C456.788 308.154 452.359 306.158 448.005 306.34C443.626 306.523 439.179 308.913 435.297 313.144Z" fill="#776C6C"/>
<path d="M261 506L263.919 514.637H273.364L265.723 519.975L268.641 528.613L261 523.275L253.359 528.613L256.277 519.975L248.636 514.637H258.081L261 506Z" fill="#6D6060"/>
<path fill-rule="evenodd" clip-rule="evenodd" d="M210.962 120.224C210.228 130.176 215.739 144.638 229.007 158.353C242.041 151.775 248.336 141.482 248.474 131.867C248.612 122.187 242.514 113.056 230.467 108.936C224.442 106.875 219.76 107.282 216.512 109.351C213.265 111.419 211.33 115.225 210.962 120.224ZM209.964 120.151C209.201 130.501 214.921 145.259 228.355 159.116L221.741 187.495L221.245 187.927L221.945 188.641L222.287 188.344L222.555 188.406L222.642 188.033L239.475 173.343C250.376 173.791 259.181 169.584 263.988 163.529C268.835 157.425 269.603 149.446 264.34 142.596C261.707 139.171 258.568 137.646 255.35 137.821C252.465 137.978 249.629 139.497 247.146 142.02C248.653 138.692 249.425 135.257 249.474 131.881C249.619 121.718 243.197 112.233 230.791 107.99C224.59 105.869 219.565 106.22 215.975 108.507C212.383 110.795 210.348 114.943 209.964 120.151ZM241.984 149.863C238.798 153.436 234.588 156.673 229.337 159.306L223.03 186.37L238.746 172.654C237.872 163.783 239.296 155.887 241.984 149.863ZM247.163 143.476C242.112 149.211 238.55 159.724 239.752 172.382C250.239 172.748 258.613 168.677 263.164 162.945C267.772 157.141 268.476 149.629 263.508 143.164C261.024 139.932 258.193 138.639 255.414 138.79C252.608 138.943 249.718 140.575 247.163 143.476Z" fill="#776C6C"/>
<path d="M251 180L253.245 185.873L260.511 185.873L254.633 189.503L256.878 195.377L251 191.747L245.122 195.377L247.367 189.503L241.489 185.873L248.755 185.873L251 180Z" fill="#6D6060"/>
<path fill-rule="evenodd" clip-rule="evenodd" d="M-0.222931 -27.5785C-0.95679 -17.6269 4.55414 -3.1648 17.8226 10.5499C30.8562 3.97266 37.1514 -6.32104 37.2891 -15.9357C37.4277 -25.6156 31.329 -34.747 19.2827 -38.8669C13.257 -40.9277 8.57542 -40.5206 5.32752 -38.4517C2.08093 -36.3837 0.145747 -32.5781 -0.222931 -27.5785ZM-1.22022 -27.6521C-1.98351 -17.3014 3.73611 -2.54326 17.17 11.3134L10.5561 39.6924L10.0607 40.1248L10.7609 40.8387L11.1021 40.5409L11.3705 40.6035L11.4574 40.2308L28.29 25.5403C39.1919 25.9883 47.9963 21.7816 52.8039 15.7262C57.6503 9.62187 58.4184 1.64293 53.155 -5.20638C50.5224 -8.63211 47.383 -10.157 44.1657 -9.98182C41.2805 -9.82476 38.4445 -8.30552 35.9611 -5.78224C37.4681 -9.11022 38.2406 -12.5454 38.289 -15.9213C38.4345 -26.0845 32.0123 -35.5701 19.6063 -39.8131C13.4058 -41.9337 8.38067 -41.5822 4.79027 -39.2951C1.19855 -37.0073 -0.83619 -32.8599 -1.22022 -27.6521ZM30.799 2.06054C27.6135 5.63322 23.4035 8.87068 18.1525 11.5033L11.8451 38.5675L27.5611 24.8514C26.6879 15.9806 28.1116 8.08401 30.799 2.06054ZM35.9785 -4.32698C30.9275 1.40848 27.3659 11.9211 28.5672 24.5797C39.0545 24.945 47.4289 20.874 51.9797 15.142C56.5878 9.33789 57.2918 1.82675 52.3232 -4.63894C49.8397 -7.87071 47.008 -9.1641 44.2295 -9.01285C41.4238 -8.86012 38.5333 -7.22796 35.9785 -4.32698Z" fill="#776C6C"/>
<path d="M39.8155 32.1974L42.0606 38.0707L49.326 38.0707L43.4482 41.7006L45.6933 47.574L39.8155 43.9441L33.9376 47.574L36.1827 41.7006L30.3049 38.0707L37.5703 38.0707L39.8155 32.1974Z" fill="#6D6060"/>
<path fill-rule="evenodd" clip-rule="evenodd" d="M319.562 -20.325C318.592 -5.66039 327.327 15.7166 347.955 36.0724C367.955 26.6289 377.526 11.5524 377.584 -2.6473C377.642 -16.9093 368.105 -30.4623 349.526 -36.7191C340.234 -39.8483 332.992 -39.3406 327.974 -36.3111C322.963 -33.2864 320.049 -27.6746 319.562 -20.325ZM318.564 -20.391C317.567 -5.31538 326.525 16.3504 347.302 36.8327L337.606 78.4355L336.796 79.1103L337.511 79.809L337.9 79.485L338.363 79.5928L338.506 78.9807L364.123 57.6401C380.758 58.4958 394.102 52.5013 401.313 43.7622C408.565 34.9745 409.592 23.4257 401.522 13.4196C397.487 8.41625 392.749 6.19315 387.948 6.39359C383.176 6.59282 378.485 9.18187 374.496 13.5257C377.208 8.25809 378.561 2.76022 378.584 -2.64322C378.644 -17.4113 368.756 -31.2982 349.845 -37.6668C340.392 -40.8505 332.816 -40.4024 327.457 -37.1672C322.089 -33.927 319.066 -27.9649 318.564 -20.391ZM368.722 22.0264C363.791 27.755 356.993 32.9254 348.284 37.0228L338.88 77.3741L363.379 56.9658C361.787 43.1278 364.205 30.9589 368.722 22.0264ZM375.297 14.1438C367.592 22.5431 362.297 38.0198 364.404 56.7055C380.62 57.4788 393.522 51.6112 400.47 43.1923C407.473 34.7056 408.449 23.6125 400.675 13.9731C396.788 9.15383 392.359 7.1583 388.005 7.34008C383.626 7.52293 379.179 9.91304 375.297 14.1438Z" fill="#776C6C"/>
<path d="M371.252 79.4286L374.171 88.0659H383.616L375.975 93.404L378.893 102.041L371.252 96.7032L363.611 102.041L366.53 93.404L358.888 88.0659H368.334L371.252 79.4286Z" fill="#6D6060"/>
<path d="M57 722L59.9187 730.637H69.3637L61.7225 735.975L64.6412 744.613L57 739.275L49.3588 744.613L52.2775 735.975L44.6363 730.637H54.0813L57 722Z" fill="#6D6060"/>
<path d="M122.89 121.713L122.765 122.479L123.476 122.79L137.536 128.94L121.338 134.521L120.772 134.716L120.676 135.306L117.638 153.967L111.071 139.03L110.7 138.187L109.829 138.487L94.4026 143.803L106.044 128.905L106.412 128.434L106.171 127.887L99.2757 112.203L113.336 118.354L114.046 118.665L114.524 118.053L125.844 103.568L122.89 121.713Z" stroke="#595757" stroke-opacity="0.89" stroke-width="2"/>
<path d="M128 155L130.919 163.637H140.364L132.723 168.975L135.641 177.613L128 172.275L120.359 177.613L123.277 168.975L115.636 163.637H125.081L128 155Z" fill="#6D6060"/>
<path d="M323.252 734.164L326.171 742.801H335.616L327.975 748.139L330.893 756.777L323.252 751.439L315.611 756.777L318.53 748.139L310.888 742.801H320.334L323.252 734.164Z" fill="#6D6060"/>
<path d="M48.0884 900.19L47.9622 900.957L48.6744 901.268L71.6333 911.311L45.2761 920.497L44.7149 920.692L44.6184 921.279L39.5541 952.057L28.7446 927.237L28.3743 926.387L27.4987 926.692L1.93475 935.601L21.0997 910.991L21.4649 910.522L21.2276 909.977L10.0826 884.387L33.0416 894.43L33.7537 894.741L34.2313 894.128L53.0652 869.943L48.0884 900.19Z" stroke="#595757" stroke-opacity="0.8" stroke-width="2"/>
<path fill-rule="evenodd" clip-rule="evenodd" d="M81.6102 276.625C80.7979 276.462 80.0076 276.989 79.8449 277.801C79.8045 278.003 79.8067 278.204 79.8453 278.394L30.7776 331.167L31.3901 331.722L28.6355 342.232C28.0086 342.14 27.3673 342.455 27.0725 343.054C26.9005 343.404 26.8771 343.788 26.9779 344.134C26.9021 344.28 26.851 344.42 26.8163 344.539C26.6853 344.987 26.5102 345.404 26.2976 345.912L26.2973 345.913C26.2589 346.004 26.2192 346.099 26.1783 346.197C26.0415 346.526 25.8953 346.888 25.764 347.281C25.6796 347.418 25.6037 347.545 25.5535 347.635L25.5531 347.636C25.5351 347.669 25.485 347.76 25.4425 347.865C25.4298 347.896 25.4095 347.949 25.3902 348.015C25.3839 348.037 25.3729 348.075 25.362 348.127L25.3487 348.155C25.321 348.213 25.2653 348.338 25.2298 348.504C25.2032 348.628 25.1253 349.049 25.3612 349.511C25.6612 350.099 26.2107 350.294 26.5633 350.327C26.8557 350.355 27.0819 350.29 27.159 350.266C27.3347 350.212 27.469 350.136 27.5089 350.113L27.5102 350.113C27.6422 350.038 27.8349 349.902 27.9561 349.817L27.9569 349.817L27.9919 349.792L28.023 349.77C28.189 349.655 28.3312 349.562 28.4454 349.5L28.4561 349.495C28.9437 349.45 29.3871 349.265 29.675 349.123C30.0253 348.95 30.3796 348.724 30.6591 348.485C30.6631 348.483 30.6677 348.481 30.6731 348.479C30.6779 348.477 30.6834 348.474 30.6894 348.471C30.7178 348.459 30.7355 348.452 30.7625 348.441C30.7724 348.437 30.7835 348.432 30.7969 348.427C30.8099 348.421 30.8249 348.415 30.8428 348.407L30.8453 348.406C30.9 348.384 31.0306 348.329 31.1626 348.251C31.2452 348.203 31.5277 348.036 31.7406 347.7C32.0944 347.43 32.3061 347.018 32.3283 346.583L43.2655 341.757L43.5757 342.039L92.6722 289.323C93.0226 290.099 93.2279 290.888 93.2279 291.633C93.2279 292.461 93.8994 293.133 94.7279 293.133C95.5563 293.133 96.2279 292.461 96.2279 291.633C96.2279 289.937 95.6202 288.341 94.8673 287.043C94.1112 285.74 93.1475 284.632 92.2845 283.891C91.8718 283.537 91.4867 283.126 91.0319 282.641L90.9381 282.541C90.4662 282.038 89.917 281.46 89.2851 280.957L89.216 280.902C87.0571 279.186 84.5859 277.221 81.6102 276.625ZM92.1769 288.388C91.6069 287.449 90.9074 286.663 90.3309 286.168C90.0191 285.9 89.7235 285.612 89.4468 285.329L40.8199 337.959L40.0766 337.29L88.7575 284.601L88.7504 284.594C88.2702 284.082 87.8574 283.655 87.4182 283.305C87.1509 283.093 86.8887 282.885 86.6306 282.683L38.064 335.579L37.3187 334.912L85.8347 282.072C84.9741 281.425 84.1499 280.86 83.3226 280.421L34.6191 333.199L33.8755 332.53L82.3725 279.976C81.9292 279.797 81.4807 279.659 81.0213 279.567C80.7829 279.519 80.5691 279.417 80.3902 279.277L31.752 331.588L43.1137 341.068L92.1769 288.388ZM28.5347 349.458C28.5345 349.458 28.5274 349.461 28.5142 349.466C28.5282 349.459 28.5349 349.457 28.5347 349.458Z" fill="#5C5B5B"/>
<path fill-rule="evenodd" clip-rule="evenodd" d="M193.857 582.033C193.047 581.861 192.251 582.379 192.079 583.189C192.025 583.442 192.039 583.693 192.107 583.924L117.111 669.348L117.637 669.853L113.228 687.67C112.649 687.628 112.074 687.926 111.789 688.473C111.54 688.95 111.573 689.499 111.828 689.931C111.613 690.214 111.495 690.522 111.426 690.77C111.211 691.548 110.922 692.277 110.599 693.093C110.541 693.239 110.482 693.388 110.423 693.541C110.204 694.097 109.979 694.691 109.783 695.325C109.636 695.577 109.508 695.801 109.429 695.951C109.403 696.001 109.35 696.105 109.307 696.217L109.307 696.218C109.301 696.233 109.239 696.386 109.213 696.595C109.19 696.638 109.166 696.685 109.143 696.735C109.115 696.798 109.063 696.922 109.031 697.084C109.007 697.204 108.936 697.605 109.151 698.051C109.432 698.636 109.973 698.86 110.364 698.9C110.675 698.931 110.917 698.857 110.999 698.831C111.189 698.769 111.337 698.68 111.385 698.651L111.385 698.651C111.549 698.553 111.791 698.373 111.979 698.233L111.98 698.233L111.983 698.231C112.028 698.197 112.069 698.166 112.106 698.139C112.362 697.952 112.607 697.78 112.82 697.658C112.904 697.61 112.96 697.583 112.993 697.568C113.648 697.533 114.279 697.264 114.715 697.036C115.224 696.77 115.728 696.423 116.1 696.076L116.1 696.077C116.1 696.077 116.112 696.066 116.143 696.047C116.176 696.027 116.221 696.003 116.288 695.972C116.337 695.949 116.374 695.933 116.422 695.912L116.423 695.912L116.423 695.912L116.458 695.896C116.48 695.887 116.504 695.876 116.533 695.864C116.614 695.828 116.774 695.757 116.928 695.66C117.049 695.585 117.398 695.359 117.606 694.917C117.878 694.74 118.078 694.483 118.189 694.191L135.693 686.012L136.165 686.466L211.398 600.914C212.038 602.334 212.439 603.836 212.439 605.298C212.439 606.127 213.11 606.798 213.939 606.798C214.767 606.798 215.439 606.127 215.439 605.298C215.439 602.836 214.614 600.467 213.538 598.481L213.683 598.316L213.159 597.812C212.118 596.06 210.868 594.574 209.747 593.555C209.085 592.953 208.47 592.258 207.788 591.487L207.787 591.487L207.636 591.316C206.917 590.505 206.119 589.616 205.21 588.851L205.163 588.812C201.842 586.015 198.208 582.955 193.857 582.033ZM210.919 599.945C210.901 599.91 210.882 599.875 210.862 599.84C209.921 598.122 208.724 596.679 207.73 595.775C207.288 595.373 206.867 594.941 206.467 594.508L131.975 679.896L131.251 679.206L205.793 593.761C205.715 593.673 205.638 593.585 205.562 593.499L205.562 593.499L205.391 593.306C204.662 592.484 203.998 591.752 203.278 591.146C202.912 590.838 202.55 590.534 202.192 590.236L127.784 676.063L127.058 675.375L201.42 589.601C199.986 588.434 198.597 587.386 197.189 586.566L122.547 672.23L121.822 671.541L196.29 586.076C195.296 585.572 194.285 585.19 193.235 584.968C193.043 584.927 192.867 584.851 192.713 584.748L118.187 669.636L135.883 685.274L210.919 599.945Z" fill="#5C5B5B"/>
<path fill-rule="evenodd" clip-rule="evenodd" d="M159.857 887.033C159.047 886.861 158.251 887.379 158.079 888.189C158.025 888.442 158.039 888.693 158.107 888.924L83.1112 974.348L83.6372 974.853L79.2277 992.67C78.6491 992.628 78.0737 992.926 77.7886 993.473C77.5401 993.95 77.5731 994.499 77.8278 994.931C77.6129 995.214 77.4945 995.522 77.4259 995.77C77.211 996.548 76.9224 997.277 76.5993 998.093C76.5414 998.239 76.4825 998.388 76.4226 998.541C76.2041 999.097 75.9787 999.691 75.783 1000.33C75.6361 1000.58 75.5076 1000.8 75.4295 1000.95C75.4035 1001 75.3501 1001.1 75.3074 1001.22L75.3069 1001.22C75.3007 1001.23 75.239 1001.39 75.2132 1001.59C75.1898 1001.64 75.1658 1001.68 75.1433 1001.74C75.1153 1001.8 75.0634 1001.92 75.0308 1002.08C75.0065 1002.2 74.9357 1002.61 75.1506 1003.05C75.4324 1003.64 75.9726 1003.86 76.3638 1003.9C76.6753 1003.93 76.9167 1003.86 76.9991 1003.83C77.1893 1003.77 77.3367 1003.68 77.3849 1003.65L77.385 1003.65C77.5487 1003.55 77.7909 1003.37 77.9792 1003.23L77.9796 1003.23C78.0257 1003.2 78.0685 1003.17 78.1062 1003.14C78.362 1002.95 78.6074 1002.78 78.8199 1002.66C78.9036 1002.61 78.9603 1002.58 78.993 1002.57C79.6477 1002.53 80.2786 1002.26 80.7152 1002.04C81.224 1001.77 81.7282 1001.42 82.1002 1001.08C82.0992 1001.08 82.1102 1001.07 82.1426 1001.05C82.1756 1001.03 82.2209 1001 82.2875 1000.97C82.3369 1000.95 82.3738 1000.93 82.4213 1000.91L82.4225 1000.91L82.4226 1000.91L82.4231 1000.91C82.4533 1000.9 82.4879 1000.88 82.5327 1000.86C82.6144 1000.83 82.7735 1000.76 82.9283 1000.66C83.0493 1000.59 83.3977 1000.36 83.6062 999.917C83.878 999.74 84.0784 999.483 84.1886 999.191L101.693 991.012L102.165 991.466L177.398 905.914C178.038 907.334 178.439 908.836 178.439 910.298C178.439 911.127 179.11 911.798 179.939 911.798C180.767 911.798 181.439 911.127 181.439 910.298C181.439 907.836 180.614 905.467 179.538 903.481L179.683 903.316L179.159 902.812C178.118 901.06 176.868 899.574 175.747 898.555C175.085 897.953 174.47 897.258 173.787 896.487L173.636 896.316C172.917 895.505 172.119 894.616 171.21 893.851L171.163 893.812C167.842 891.015 164.208 887.955 159.857 887.033ZM176.919 904.945C176.901 904.91 176.882 904.875 176.862 904.84C175.921 903.122 174.724 901.679 173.73 900.775C173.288 900.373 172.867 899.941 172.467 899.508L97.9746 984.896L97.2508 984.206L171.793 898.761C171.715 898.673 171.638 898.585 171.562 898.499L171.391 898.306C170.662 897.484 169.998 896.752 169.278 896.146C168.912 895.838 168.55 895.534 168.192 895.236L93.7844 981.063L93.0585 980.375L167.42 894.601C165.986 893.434 164.597 892.386 163.189 891.566L88.5467 977.23L87.8225 976.541L162.29 891.076C161.296 890.572 160.285 890.19 159.235 889.968C159.043 889.927 158.867 889.851 158.713 889.748L84.1874 974.636L101.883 990.274L176.919 904.945Z" fill="#5C5B5B"/>
<path fill-rule="evenodd" clip-rule="evenodd" d="M305.857 -57.9671C305.047 -58.1389 304.251 -57.6213 304.079 -56.8108C304.025 -56.5584 304.039 -56.3074 304.107 -56.0762L229.111 29.348L229.637 29.8526L225.228 47.6701C224.649 47.6283 224.074 47.9261 223.789 48.4734C223.54 48.9502 223.573 49.4993 223.828 49.9305C223.613 50.2142 223.495 50.5222 223.426 50.7705C223.211 51.5479 222.922 52.2769 222.599 53.0931C222.541 53.2392 222.482 53.3881 222.423 53.5406C222.204 54.0975 221.979 54.6912 221.783 55.3254C221.636 55.5773 221.508 55.8015 221.429 55.9514C221.403 56.0013 221.35 56.1046 221.307 56.2168L221.307 56.218C221.301 56.2333 221.239 56.3856 221.213 56.5946C221.19 56.6375 221.166 56.6848 221.143 56.7351C221.115 56.7975 221.063 56.9219 221.031 57.0836C221.007 57.2038 220.936 57.6051 221.151 58.0511C221.432 58.6357 221.973 58.8604 222.364 58.8998C222.675 58.9311 222.917 58.8572 222.999 58.8305C223.189 58.7689 223.337 58.6803 223.385 58.6513L223.385 58.6513C223.549 58.5528 223.791 58.373 223.979 58.2332L223.98 58.2329C224.026 58.1987 224.069 58.1669 224.106 58.1392C224.362 57.9516 224.607 57.7798 224.82 57.6579C224.904 57.6098 224.96 57.5825 224.993 57.5679C225.648 57.5333 226.279 57.2637 226.715 57.0358C227.224 56.7703 227.728 56.4226 228.1 56.0765C228.099 56.0774 228.11 56.067 228.143 56.0473C228.176 56.0271 228.221 56.0031 228.288 55.9721C228.337 55.9492 228.374 55.9331 228.421 55.9125L228.423 55.9119L228.423 55.9119L228.423 55.9117C228.453 55.8986 228.488 55.8835 228.533 55.8637C228.614 55.8276 228.774 55.7568 228.928 55.6605C229.049 55.5851 229.398 55.3595 229.606 54.9172C229.878 54.74 230.078 54.483 230.189 54.1913L247.693 46.0123L248.165 46.4657L323.398 -39.0861C324.038 -37.6655 324.439 -36.1636 324.439 -34.7017C324.439 -33.8733 325.11 -33.2017 325.939 -33.2017C326.767 -33.2017 327.439 -33.8733 327.439 -34.7017C327.439 -37.1644 326.614 -39.5331 325.538 -41.5194L325.683 -41.684L325.159 -42.1877C324.118 -43.9398 322.868 -45.4265 321.747 -46.4449C321.085 -47.047 320.47 -47.7418 319.787 -48.5128L319.636 -48.6836C318.917 -49.4955 318.119 -50.3838 317.21 -51.1491L317.163 -51.1884C313.842 -53.9851 310.208 -57.0445 305.857 -57.9671ZM322.919 -40.0546C322.901 -40.0897 322.882 -40.1247 322.862 -40.1596C321.921 -41.8778 320.724 -43.3209 319.73 -44.2248C319.288 -44.6266 318.867 -45.0588 318.467 -45.4922L243.975 39.8955L243.251 39.2055L317.793 -46.2395C317.715 -46.3274 317.638 -46.4147 317.562 -46.501L317.391 -46.6941C316.662 -47.5162 315.998 -48.2483 315.278 -48.8542C314.912 -49.1625 314.55 -49.4662 314.192 -49.7638L239.784 36.0629L239.058 35.3752L313.42 -50.3988C311.986 -51.5664 310.597 -52.6137 309.189 -53.4341L234.547 32.2303L233.822 31.5408L308.29 -53.9239C307.296 -54.428 306.285 -54.8097 305.235 -55.0323C305.043 -55.0731 304.867 -55.1491 304.713 -55.252L230.187 29.6363L247.883 45.2736L322.919 -40.0546Z" fill="#747474"/>
<path d="M86.6765 545C95.4858 543.317 68.2536 539.543 62.2554 511.38C56.2572 483.216 72.9664 485.57 86.6765 520.457C86.6765 474.139 108.955 488.518 108.955 503.647C109.812 524.155 98.1833 529.561 86.6765 545Z" stroke="#969090" stroke-opacity="0.8" stroke-width="3"/>
<path d="M328.794 944C343.476 941.205 298.089 934.938 288.092 888.166C278.095 841.395 305.944 845.303 328.794 903.241C328.794 826.319 365.926 850.199 365.926 875.324C367.354 909.383 347.972 918.36 328.794 944Z" stroke="#969090" stroke-opacity="0.8" stroke-width="3"/>
<path d="M216.589 295.805V308.569C216.589 314.59 224.947 299.659 224.947 299.659C224.947 299.659 236.888 312.182 242.858 308.569C248.828 304.957 236.888 299.659 236.888 299.659C236.888 299.659 257.902 286.895 251.932 286.895H236.888L224.947 271V286.895C224.947 286.895 216.589 286.895 204.41 290.989C192.231 295.083 216.589 295.805 216.589 295.805Z" stroke="#969090" stroke-opacity="0.8" stroke-width="4"/>
<path d="M398.372 543.969C398.372 543.969 378.126 530.786 368.762 535.454C359.397 540.121 385.829 559.427 385.829 559.427C385.829 559.427 355.669 573.92 367.715 573.679C379.761 573.437 402.422 570.869 402.422 570.869L420.028 589.035C437.634 607.202 418.646 563.072 418.646 563.072L453.008 553.771L420.893 548.124C420.893 548.124 425.411 530.975 421.765 521.078C418.118 511.181 398.372 543.969 398.372 543.969Z" stroke="#969090" stroke-opacity="0.8" stroke-width="4"/>
<path d="M3.37151 84.9689C3.37151 84.9689 -16.874 71.7857 -26.2383 76.4535C-35.6025 81.1213 -9.17087 100.427 -9.17087 100.427C-9.17087 100.427 -39.3313 114.92 -27.2852 114.679C-15.2391 114.437 7.42221 111.869 7.42221 111.869L25.028 130.035C42.6337 148.202 23.6462 104.072 23.6462 104.072L58.0081 94.7713L25.8934 89.1239C25.8934 89.1239 30.4115 71.975 26.7649 62.0779C23.1184 52.1808 3.37151 84.9689 3.37151 84.9689Z" stroke="#969090" stroke-opacity="0.8" stroke-width="4"/>
<path d="M127.09 428.024C145.882 424.511 152.641 418.121 160 401.228C156.808 379.185 145.436 374.763 140.019 401.228C135.667 381.911 123.025 375.772 119.802 401.228C115.056 381.507 111.122 378.433 97 401.228C98.6452 422.792 107.918 425.71 127.09 428.024ZM127.09 428.024C133.98 442.457 134.901 448.384 127.09 452" stroke="#6B6969" stroke-width="3"/>
<path d="M417.09 792.024C435.882 788.511 442.641 782.121 450 765.228C446.808 743.185 435.436 738.763 430.019 765.228C425.667 745.911 413.025 739.772 409.802 765.228C405.056 745.507 401.122 742.433 387 765.228C388.645 786.792 397.918 789.71 417.09 792.024ZM417.09 792.024C423.98 806.457 424.901 812.384 417.09 816" stroke="#6B6969" stroke-width="3"/>
<path d="M390.09 200.024C408.882 196.511 415.641 190.121 423 173.228C419.808 151.185 408.436 146.763 403.019 173.228C398.667 153.911 386.025 147.772 382.802 173.228C378.056 153.507 374.122 150.433 360 173.228C361.645 194.792 370.918 197.71 390.09 200.024ZM390.09 200.024C396.98 214.457 397.901 220.384 390.09 224" stroke="#6B6969" stroke-width="3"/>
<path d="M134.09 840.024C152.882 836.511 159.641 830.121 167 813.228C163.808 791.185 152.436 786.763 147.019 813.228C142.667 793.911 130.025 787.772 126.802 813.228C122.056 793.507 118.122 790.433 104 813.228C105.645 834.792 114.918 837.71 134.09 840.024ZM134.09 840.024C140.98 854.457 141.901 860.384 134.09 864" stroke="#6B6969" stroke-width="3"/>
</g>
<defs>
<clipPath id="clip0_1_2">
<rect width="428" height="926" fill="white"/>
</clipPath>
</defs>
</svg>
